<?xml version="1.0" encoding="utf-8"?>
<!-- Generator: Adobe Illustrator 26.0.3, SVG Export Plug-In . SVG Version: 6.00 Build 0)  -->
<svg version="1.1" id="Layer_1" xmlns="http://www.w3.org/2000/svg" xmlns:xlink="http://www.w3.org/1999/xlink" x="0px" y="0px"
	 viewBox="0 0 391.95 448.95" style="enable-background:new 0 0 391.95 448.95;" xml:space="preserve">
<style type="text/css">
	.st0{fill:#333333;}
	.st1{fill:#373636;}
	.st2{fill:#383938;}
	.st3{fill:#414141;}
	.st4{fill:#3A3B3A;}
	.st5{fill:#3F3F3F;}
	.st6{fill:#464646;}
	.st7{fill:#606060;}
	.st8{fill:#3D3D3D;}
	.st9{fill:#444444;}
	.st10{fill:#4E4E4E;}
	.st11{fill:#3E3E3E;}
	.st12{fill:#474747;}
	.st13{fill:#494949;}
	.st14{fill:#373737;}
	.st15{fill:#404040;}
	.st16{fill:#343434;}
	.st17{fill:#434343;}
	.st18{fill:#3C3C3B;}
	.st19{fill:#5C5C5C;}
	.st20{fill:#515151;}
	.st21{fill:#5B5B5B;}
	.st22{fill:#424242;}
	.st23{fill:#4F4F4F;}
	.st24{fill:#303030;}
	.st25{fill:#4C4C4C;}
	.st26{fill:#353635;}
	.st27{fill:#ED2A91;}
	.st28{fill:#ED3093;}
	.st29{fill:#ED3393;}
	.st30{fill:#E9128D;}
	.st31{fill:#ED2891;}
	.st32{fill:#ED2C92;}
	.st33{fill:#ED2690;}
	.st34{fill:#656565;}
	.st35{fill:#3A3A39;}
	.st36{fill:#454545;}
	.st37{fill:#575757;}
	.st38{fill:#C51A78;}
	.st39{fill:#4E89C7;}
	.st40{fill:#477FC1;}
	.st41{fill:#4982C3;}
	.st42{fill:#467CBF;}
	.st43{fill:#508BC9;}
	.st44{fill:#4D87C7;}
	.st45{fill:#487FC1;}
	.st46{fill:#457BBF;}
	.st47{fill:#4983C4;}
	.st48{fill:#4881C2;}
	.st49{fill:#467EC0;}
	.st50{fill:#4377BC;}
	.st51{fill:#4A82C3;}
	.st52{fill:#4A85C5;}
	.st53{fill:#4277BB;}
	.st54{fill:#548FCB;}
	.st55{fill:#4278BC;}
	.st56{fill:#4178BC;}
	.st57{fill:#477DBF;}
	.st58{fill:#447ABD;}
	.st59{fill:#538ECB;}
	.st60{fill:#D51181;}
	.st61{fill:#CE167D;}
	.st62{fill:#CF157D;}
</style>
<path id="path2214" class="st0" d="M196.03,168.63l-48-27.71v55.43L196.03,168.63z"/>
<path id="path2216" class="st1" d="M196.03,224.06l0-55.43l-48,27.71L196.03,224.06z"/>
<path id="path2218" class="st2" d="M196.03,168.63l0-55.43l-48,27.71L196.03,168.63z"/>
<path id="path2220" class="st3" d="M244.03,140.92l-48-27.71l0,55.43L244.03,140.92z"/>
<path id="path2222" class="st4" d="M196.03,113.21l0-55.43l-48,27.71L196.03,113.21z"/>
<path id="path2224" class="st5" d="M196.03,57.78l0-55.43l-48,27.71L196.03,57.78z"/>
<path id="path2226" class="st6" d="M244.03,85.49l-48-27.71l0,55.43L244.03,85.49z"/>
<path id="path2228" class="st7" d="M244.03,30.07l-48-27.71l0,55.43L244.03,30.07z"/>
<path id="path2230" class="st8" d="M196.03,334.91l0-55.43l-48,27.71L196.03,334.91z"/>
<path id="path2232" class="st9" d="M244.03,307.2l-48-27.71l0,55.43L244.03,307.2z"/>
<path id="path2234" class="st10" d="M244.03,251.77l-48-27.71l0,55.43L244.03,251.77z"/>
<path id="path2236" class="st11" d="M244.03,140.92l0-55.43l-48,27.71L244.03,140.92z"/>
<path id="path2238" class="st12" d="M244.03,85.49l0-55.43l-48,27.71L244.03,85.49z"/>
<path id="path2240" class="st13" d="M244.03,307.2l0-55.43l-48,27.71L244.03,307.2z"/>
<path id="path2242" class="st14" d="M244.03,251.77l0-55.43l-48,27.71L244.03,251.77z"/>
<path id="path2244" class="st15" d="M196.03,279.48l-48-27.71l0,55.43L196.03,279.48z"/>
<path id="path2246" class="st16" d="M196.03,224.06l-48-27.71l0,55.43L196.03,224.06z"/>
<path id="path2248" class="st17" d="M196.03,113.21l-48-27.71l0,55.43L196.03,113.21z"/>
<path id="path2250" class="st5" d="M196.03,57.78l-48-27.71v55.43L196.03,57.78z"/>
<path id="path2252" class="st10" d="M340.03,140.92l-48-27.71v55.43L340.03,140.92z"/>
<path id="path2254" class="st5" d="M340.03,85.49l-48-27.71v55.43L340.03,85.49z"/>
<path id="path2256" class="st18" d="M340.03,251.77l-48-27.71l0,55.43L340.03,251.77z"/>
<path id="path2258" class="st19" d="M340.03,196.35l-48-27.71v55.43L340.03,196.35z"/>
<path id="path2260" class="st20" d="M340.03,196.35l0-55.43l-48,27.71L340.03,196.35z"/>
<path id="path2262" class="st21" d="M340.03,140.92l0-55.43l-48,27.71L340.03,140.92z"/>
<path id="path2264" class="st22" d="M340.03,251.77l0-55.43l-48,27.71L340.03,251.77z"/>
<path id="path2266" class="st2" d="M196.03,334.91l0-55.43l-48,27.71L196.03,334.91z"/>
<path id="path2268" class="st15" d="M244.03,307.2l-48-27.71l0,55.43L244.03,307.2z"/>
<path id="path2270" class="st19" d="M244.03,307.2l0-55.43l-48,27.71L244.03,307.2z"/>
<path id="path2272" class="st5" d="M340.03,251.77l-48-27.71l0,55.43L340.03,251.77z"/>
<path id="path2274" class="st3" d="M340.03,251.77l0-55.43l-48,27.71L340.03,251.77z"/>
<path id="path2276" class="st4" d="M388.03,168.63l-48-27.71v55.43L388.03,168.63z"/>
<path id="path2278" class="st16" d="M388.03,113.21l-48-27.71v55.43L388.03,113.21z"/>
<path id="path2280" class="st23" d="M388.03,279.48l-48-27.71v55.43L388.03,279.48z"/>
<path id="path2282" class="st1" d="M388.03,224.06l-48-27.71v55.43L388.03,224.06z"/>
<path id="path2284" class="st8" d="M388.03,224.06l0-55.43l-48,27.71L388.03,224.06z"/>
<path id="path2286" class="st22" d="M388.03,168.63l0-55.43l-48,27.71L388.03,168.63z"/>
<path id="path2288" class="st24" d="M388.03,279.48l0-55.43l-48,27.71L388.03,279.48z"/>
<path id="path2290" class="st10" d="M388.03,279.48l-48-27.71v55.43L388.03,279.48z"/>
<path id="path2292" class="st6" d="M388.03,279.48l0-55.43l-48,27.71L388.03,279.48z"/>
<path id="path2294" class="st4" d="M196.03,390.34l0-55.43l-48,27.71L196.03,390.34z"/>
<path id="path2296" class="st25" d="M244.03,362.62l-48-27.71l0,55.43L244.03,362.62z"/>
<path id="path2298" class="st26" d="M244.03,362.62l0-55.43l-48,27.71L244.03,362.62z"/>
<path id="path2300" class="st5" d="M196.03,334.91l-48-27.71l0,55.43L196.03,334.91z"/>
<path id="path2302" class="st20" d="M340.03,307.2l-48-27.71l0,55.43L340.03,307.2z"/>
<path id="path2304" class="st16" d="M340.03,307.2l0-55.43l-48,27.71L340.03,307.2z"/>
<path id="path2306" class="st27" d="M196.03,445.76l0-55.43l-48,27.71L196.03,445.76z"/>
<path id="path2308" class="st28" d="M244.03,418.05l-48-27.71l0,55.43L244.03,418.05z"/>
<path id="path2310" class="st29" d="M244.03,418.05l0-55.43l-48,27.71L244.03,418.05z"/>
<path id="path2312" class="st30" d="M196.03,390.34l-48-27.71l0,55.43L196.03,390.34z"/>
<path id="path2314" class="st31" d="M340.03,362.62l-48-27.71l0,55.43L340.03,362.62z"/>
<path id="path2316" class="st27" d="M340.03,362.62l0-55.43l-48,27.71L340.03,362.62z"/>
<path id="path2318" class="st32" d="M388.03,334.91l-48-27.71v55.43L388.03,334.91z"/>
<path id="path2320" class="st33" d="M388.03,334.91l0-55.43l-48,27.71L388.03,334.91z"/>
<path id="path2322" class="st5" d="M52.03,140.92l48-27.71l0,55.43L52.03,140.92z"/>
<path id="path2324" class="st34" d="M52.03,85.49l48-27.71l0,55.43L52.03,85.49z"/>
<path id="path2326" class="st35" d="M52.03,251.77l48-27.71l0,55.43L52.03,251.77z"/>
<path id="path2328" class="st8" d="M52.03,196.35l48-27.71l0,55.43L52.03,196.35z"/>
<path id="path2330" class="st36" d="M52.03,196.35l0-55.43l48,27.71L52.03,196.35z"/>
<path id="path2332" class="st6" d="M52.03,140.92l0-55.43l48,27.71L52.03,140.92z"/>
<path id="path2334" class="st1" d="M52.03,251.77l0-55.43l48,27.71L52.03,251.77z"/>
<path id="path2336" class="st5" d="M52.03,251.77l48-27.71l0,55.43L52.03,251.77z"/>
<path id="path2338" class="st22" d="M52.03,251.77l0-55.43l48,27.71L52.03,251.77z"/>
<path id="path2340" class="st5" d="M4.03,168.63l48-27.71l0,55.43L4.03,168.63z"/>
<path id="path2342" class="st22" d="M4.03,113.21l48-27.71l0,55.43L4.03,113.21z"/>
<path id="path2344" class="st25" d="M4.03,279.48l48-27.71l0,55.43L4.03,279.48z"/>
<path id="path2346" class="st8" d="M4.03,224.06l48-27.71l0,55.43L4.03,224.06z"/>
<path id="path2348" class="st5" d="M4.03,224.06l0-55.43l48,27.71L4.03,224.06z"/>
<path id="path2350" class="st37" d="M4.03,168.63l0-55.43l48,27.71L4.03,168.63z"/>
<path id="path2352" class="st13" d="M4.03,279.48l0-55.43l48,27.71L4.03,279.48z"/>
<path id="path2354" class="st5" d="M4.03,279.48l48-27.71l0,55.43L4.03,279.48z"/>
<path id="path2356" class="st10" d="M4.03,279.48l0-55.43l48,27.71L4.03,279.48z"/>
<path id="path2358" class="st14" d="M52.03,307.2l48-27.71l0,55.43L52.03,307.2z"/>
<path id="path2360" class="st2" d="M52.03,307.2l0-55.43l48,27.71L52.03,307.2z"/>
<path id="path2362" class="st38" d="M52.03,362.62l48-27.71l0,55.43L52.03,362.62z"/>
<path id="path2364" class="st39" d="M244.03,196.35l-48-27.71l0,55.43L244.03,196.35z"/>
<path id="path2366" class="st40" d="M292.03,168.63l-48-27.71l0,55.43L292.03,168.63z"/>
<path id="path2368" class="st41" d="M244.03,196.35l0-55.43l-48,27.71L244.03,196.35z"/>
<path id="path2370" class="st42" d="M148.03,196.35l0-55.43l-48,27.71L148.03,196.35z"/>
<path id="path2372" class="st42" d="M196.03,279.48l0-55.43l-48,27.71L196.03,279.48z"/>
<path id="path2374" class="st43" d="M292.03,113.21l-48-27.71l0,55.43L292.03,113.21z"/>
<path id="path2376" class="st44" d="M292.03,57.78l-48-27.71l0,55.43L292.03,57.78z"/>
<path id="path2378" class="st45" d="M292.03,279.48l-48-27.71l0,55.43L292.03,279.48z"/>
<path id="path2380" class="st46" d="M292.03,224.06l-48-27.71l0,55.43L292.03,224.06z"/>
<path id="path2382" class="st47" d="M148.03,307.2l0-55.43l-48,27.71L148.03,307.2z"/>
<path id="path2384" class="st48" d="M148.03,251.77l0-55.43l-48,27.71L148.03,251.77z"/>
<path id="path2386" class="st44" d="M148.03,140.92l0-55.43l-48,27.71L148.03,140.92z"/>
<path id="path2388" class="st49" d="M148.03,85.49l0-55.43l-48,27.71L148.03,85.49z"/>
<path id="path2390" class="st50" d="M292.03,168.63l0-55.43l-48,27.71L292.03,168.63z"/>
<path id="path2392" class="st45" d="M292.03,113.21l0-55.43l-48,27.71L292.03,113.21z"/>
<path id="path2394" class="st41" d="M292.03,279.48l0-55.43l-48,27.71L292.03,279.48z"/>
<path id="path2396" class="st51" d="M292.03,224.06l0-55.43l-48,27.71L292.03,224.06z"/>
<path id="path2398" class="st48" d="M148.03,140.92l-48-27.71l0,55.43L148.03,140.92z"/>
<path id="path2400" class="st52" d="M148.03,85.49l-48-27.71l0,55.43L148.03,85.49z"/>
<path id="path2402" class="st48" d="M148.03,251.77l-48-27.71l0,55.43L148.03,251.77z"/>
<path id="path2404" class="st53" d="M148.03,196.35l-48-27.71l0,55.43L148.03,196.35z"/>
<path id="path2406" class="st39" d="M292.03,279.48l-48-27.71l0,55.43L292.03,279.48z"/>
<path id="path2408" class="st41" d="M148.03,307.2l0-55.43l-48,27.71L148.03,307.2z"/>
<path id="path2410" class="st41" d="M196.03,279.48l-48-27.71l0,55.43L196.03,279.48z"/>
<path id="path2412" class="st54" d="M292.03,279.48l0-55.43l-48,27.71L292.03,279.48z"/>
<path id="path2414" class="st55" d="M148.03,251.77l-48-27.71l0,55.43L148.03,251.77z"/>
<path id="path2416" class="st48" d="M292.03,334.91l-48-27.71l0,55.43L292.03,334.91z"/>
<path id="path2418" class="st49" d="M148.03,362.62l0-55.43l-48,27.71L148.03,362.62z"/>
<path id="path2420" class="st56" d="M292.03,334.91l0-55.43l-48,27.71L292.03,334.91z"/>
<path id="path2422" class="st57" d="M148.03,307.2l-48-27.71l0,55.43L148.03,307.2z"/>
<path id="path2424" class="st39" d="M292.03,390.34l-48-27.71l0,55.43L292.03,390.34z"/>
<path id="path2426" class="st51" d="M148.03,418.05l0-55.43l-48,27.71L148.03,418.05z"/>
<path id="path2428" class="st58" d="M292.03,390.34l0-55.43l-48,27.71L292.03,390.34z"/>
<path id="path2430" class="st59" d="M148.03,362.62l-48-27.71l0,55.43L148.03,362.62z"/>
<path id="path2432" class="st60" d="M52.03,362.62l0-55.43l48,27.71L52.03,362.62z"/>
<path id="path2434" class="st61" d="M4.03,334.91l48-27.71l0,55.43L4.03,334.91z"/>
<path id="path2436" class="st62" d="M4.03,334.91l0-55.43l48,27.71L4.03,334.91z"/>
</svg>
